<svg xmlns="http://www.w3.org/2000/svg" viewBox="0 0 64 64">
<path d="M12 36V30a20 20 0 0 1 40 0v6" fill="none" stroke="#2563eb" stroke-width="4.5" stroke-linecap="round"/>
<ellipse cx="32" cy="38" rx="21" ry="17" fill="#4ade80"/><ellipse cx="32" cy="43" rx="14" ry="9" fill="#bbf7d0"/><circle cx="22" cy="30" r="8" fill="#4ade80"/><circle cx="42" cy="30" r="8" fill="#4ade80"/><circle cx="22" cy="30" r="5.5" fill="#fff"/><circle cx="42" cy="30" r="5.5" fill="#fff"/><circle cx="23.5" cy="31" r="3" fill="#1f2937"/><circle cx="43.5" cy="31" r="3" fill="#1f2937"/><circle cx="24.6" cy="29.8" r="1" fill="#fff"/><circle cx="44.6" cy="29.8" r="1" fill="#fff"/><circle cx="16" cy="41" r="2.4" fill="#f9a8d4" opacity=".8"/><circle cx="48" cy="41" r="2.4" fill="#f9a8d4" opacity=".8"/><path d="M25 43q7 5 14 0" fill="none" stroke="#166534" stroke-width="2.2" stroke-linecap="round"/>
<rect x="6" y="32" width="9" height="14" rx="4" fill="#2563eb"/><rect x="49" y="32" width="9" height="14" rx="4" fill="#2563eb"/>
</svg>
